# xmcd
#
# Track frame offsets:
#  150
#  16863
#  30331
#  45247
#  59843
#  77012
#  95311
#  111682
#  126457
#  144174
#  156731
#  174220
#  204693
#
# Disc length: 2916 seconds
#
# Revision: 0
# Processed by: cddbd v1.5.1PL2 Copyright (c) Steve Scherf et al.
# Submitted via: Collectorz.com_Music_Collector 6.10
#
DISCID=ae0b620d
DTITLE=Summer And The Sinners - Boogie With The Devil
DYEAR=2006
DGENRE=Blues
TTITLE0=Breakin' Up Somebody's Home
TTITLE1=Natural Ball
TTITLE2=12 Bar Blues
TTITLE3=Ti-Na-Ni-Na-Nu
TTITLE4=Little Mixed Up
TTITLE5=Big Boss Man
TTITLE6=Phone Booth
TTITLE7=Sinners Boogie
TTITLE8=Big Town Playboy
TTITLE9=Independance Blues
TTITLE10=Ooh Baby
TTITLE11=How Blue Can You Get?
TTITLE12=Money Maker
EXTD=
EXTT0=
EXTT1=
EXTT2=
EXTT3=
EXTT4=
EXTT5=
EXTT6=
EXTT7=
EXTT8=
EXTT9=
EXTT10=
EXTT11=
EXTT12=
PLAYORDER=
